<mxfile host="Electron" agent="Mozilla/5.0 (Windows NT 10.0; Win64; x64) AppleWebKit/537.36 (KHTML, like Gecko) draw.io/26.2.2 Chrome/134.0.6998.178 Electron/35.1.2 Safari/537.36" version="26.2.2">
  <diagram name="Page-1" id="jzfieIVNTfRDAY51eBSo">
    <mxGraphModel dx="1606" dy="898" grid="1" gridSize="10" guides="1" tooltips="1" connect="1" arrows="1" fold="1" page="1" pageScale="1" pageWidth="850" pageHeight="1100" math="0" shadow="0">
      <root>
        <mxCell id="0" />
        <mxCell id="1" parent="0" />
        <mxCell id="zKfwrWCPfjFIez0g7Iu5-5" value="" style="edgeStyle=orthogonalEdgeStyle;rounded=0;orthogonalLoop=1;jettySize=auto;html=1;" edge="1" parent="1" source="zKfwrWCPfjFIez0g7Iu5-1" target="zKfwrWCPfjFIez0g7Iu5-4">
          <mxGeometry relative="1" as="geometry" />
        </mxCell>
        <mxCell id="zKfwrWCPfjFIez0g7Iu5-1" value="START" style="ellipse;whiteSpace=wrap;html=1;fillColor=#CCFFCC;" vertex="1" parent="1">
          <mxGeometry x="180" y="20" width="100" height="40" as="geometry" />
        </mxCell>
        <mxCell id="zKfwrWCPfjFIez0g7Iu5-2" value="END" style="ellipse;whiteSpace=wrap;html=1;fillColor=#FFCCCC;" vertex="1" parent="1">
          <mxGeometry x="180" y="990" width="100" height="40" as="geometry" />
        </mxCell>
        <mxCell id="zKfwrWCPfjFIez0g7Iu5-6" style="edgeStyle=orthogonalEdgeStyle;rounded=0;orthogonalLoop=1;jettySize=auto;html=1;entryX=0;entryY=0.5;entryDx=0;entryDy=0;" edge="1" parent="1" source="zKfwrWCPfjFIez0g7Iu5-4" target="zKfwrWCPfjFIez0g7Iu5-2">
          <mxGeometry relative="1" as="geometry">
            <Array as="points">
              <mxPoint x="20" y="140" />
              <mxPoint x="20" y="940" />
            </Array>
          </mxGeometry>
        </mxCell>
        <mxCell id="zKfwrWCPfjFIez0g7Iu5-7" value="N" style="edgeLabel;html=1;align=center;verticalAlign=middle;resizable=0;points=[];" vertex="1" connectable="0" parent="zKfwrWCPfjFIez0g7Iu5-6">
          <mxGeometry x="-0.9357" y="-3" relative="1" as="geometry">
            <mxPoint x="-1" as="offset" />
          </mxGeometry>
        </mxCell>
        <mxCell id="zKfwrWCPfjFIez0g7Iu5-10" value="" style="edgeStyle=orthogonalEdgeStyle;rounded=0;orthogonalLoop=1;jettySize=auto;html=1;" edge="1" parent="1" source="zKfwrWCPfjFIez0g7Iu5-4" target="zKfwrWCPfjFIez0g7Iu5-8">
          <mxGeometry relative="1" as="geometry" />
        </mxCell>
        <mxCell id="zKfwrWCPfjFIez0g7Iu5-11" value="Y" style="edgeLabel;html=1;align=center;verticalAlign=middle;resizable=0;points=[];" vertex="1" connectable="0" parent="zKfwrWCPfjFIez0g7Iu5-10">
          <mxGeometry x="-0.08" y="2" relative="1" as="geometry">
            <mxPoint as="offset" />
          </mxGeometry>
        </mxCell>
        <mxCell id="zKfwrWCPfjFIez0g7Iu5-4" value="DO YOU WANT TO PLAY A GAME OF BLACK JACK? &#39;Y&#39; OR &#39;&#39;N&#39;" style="rhombus;whiteSpace=wrap;html=1;" vertex="1" parent="1">
          <mxGeometry x="170" y="90" width="120" height="100" as="geometry" />
        </mxCell>
        <mxCell id="zKfwrWCPfjFIez0g7Iu5-12" value="" style="edgeStyle=orthogonalEdgeStyle;rounded=0;orthogonalLoop=1;jettySize=auto;html=1;" edge="1" parent="1" source="zKfwrWCPfjFIez0g7Iu5-8" target="zKfwrWCPfjFIez0g7Iu5-9">
          <mxGeometry relative="1" as="geometry" />
        </mxCell>
        <mxCell id="zKfwrWCPfjFIez0g7Iu5-8" value="GIVE COMPUTER AND PLAYER 2 CARDS EACH" style="rounded=1;whiteSpace=wrap;html=1;" vertex="1" parent="1">
          <mxGeometry x="170" y="230" width="120" height="50" as="geometry" />
        </mxCell>
        <mxCell id="zKfwrWCPfjFIez0g7Iu5-14" value="" style="edgeStyle=orthogonalEdgeStyle;rounded=0;orthogonalLoop=1;jettySize=auto;html=1;" edge="1" parent="1" source="zKfwrWCPfjFIez0g7Iu5-9" target="zKfwrWCPfjFIez0g7Iu5-13">
          <mxGeometry relative="1" as="geometry" />
        </mxCell>
        <mxCell id="zKfwrWCPfjFIez0g7Iu5-9" value="DISPLAY ALL PLAYERS CARD AND TOTAL AND SHOW THE COMPUTER&#39;S FIRST CARD" style="rounded=1;whiteSpace=wrap;html=1;" vertex="1" parent="1">
          <mxGeometry x="135" y="310" width="190" height="60" as="geometry" />
        </mxCell>
        <mxCell id="zKfwrWCPfjFIez0g7Iu5-16" value="" style="edgeStyle=orthogonalEdgeStyle;rounded=0;orthogonalLoop=1;jettySize=auto;html=1;" edge="1" parent="1" source="zKfwrWCPfjFIez0g7Iu5-13" target="zKfwrWCPfjFIez0g7Iu5-15">
          <mxGeometry relative="1" as="geometry" />
        </mxCell>
        <mxCell id="zKfwrWCPfjFIez0g7Iu5-18" value="Y" style="edgeLabel;html=1;align=center;verticalAlign=middle;resizable=0;points=[];" vertex="1" connectable="0" parent="zKfwrWCPfjFIez0g7Iu5-16">
          <mxGeometry x="-0.2943" y="-5" relative="1" as="geometry">
            <mxPoint as="offset" />
          </mxGeometry>
        </mxCell>
        <mxCell id="zKfwrWCPfjFIez0g7Iu5-39" value="" style="edgeStyle=orthogonalEdgeStyle;rounded=0;orthogonalLoop=1;jettySize=auto;html=1;" edge="1" parent="1" source="zKfwrWCPfjFIez0g7Iu5-13" target="zKfwrWCPfjFIez0g7Iu5-37">
          <mxGeometry relative="1" as="geometry" />
        </mxCell>
        <mxCell id="zKfwrWCPfjFIez0g7Iu5-40" value="N" style="edgeLabel;html=1;align=center;verticalAlign=middle;resizable=0;points=[];" vertex="1" connectable="0" parent="zKfwrWCPfjFIez0g7Iu5-39">
          <mxGeometry x="-0.0733" y="-3" relative="1" as="geometry">
            <mxPoint as="offset" />
          </mxGeometry>
        </mxCell>
        <mxCell id="zKfwrWCPfjFIez0g7Iu5-13" value="TYPE &#39;Y&#39; TO GET ANOTHER CARD AND &#39;N&#39; TO PASS" style="rhombus;whiteSpace=wrap;html=1;" vertex="1" parent="1">
          <mxGeometry x="172.5" y="410" width="115" height="100" as="geometry" />
        </mxCell>
        <mxCell id="zKfwrWCPfjFIez0g7Iu5-30" value="" style="edgeStyle=orthogonalEdgeStyle;rounded=0;orthogonalLoop=1;jettySize=auto;html=1;" edge="1" parent="1" source="zKfwrWCPfjFIez0g7Iu5-15" target="zKfwrWCPfjFIez0g7Iu5-28">
          <mxGeometry relative="1" as="geometry" />
        </mxCell>
        <mxCell id="zKfwrWCPfjFIez0g7Iu5-15" value="GIVE PLAYER ANOTHER CARD TO THEIR COLLECTION" style="rounded=1;whiteSpace=wrap;html=1;" vertex="1" parent="1">
          <mxGeometry x="170" y="550" width="120" height="60" as="geometry" />
        </mxCell>
        <mxCell id="zKfwrWCPfjFIez0g7Iu5-24" value="" style="edgeStyle=orthogonalEdgeStyle;rounded=0;orthogonalLoop=1;jettySize=auto;html=1;" edge="1" parent="1" source="zKfwrWCPfjFIez0g7Iu5-20" target="zKfwrWCPfjFIez0g7Iu5-23">
          <mxGeometry relative="1" as="geometry" />
        </mxCell>
        <mxCell id="zKfwrWCPfjFIez0g7Iu5-25" value="Y" style="edgeLabel;html=1;align=center;verticalAlign=middle;resizable=0;points=[];" vertex="1" connectable="0" parent="zKfwrWCPfjFIez0g7Iu5-24">
          <mxGeometry x="-0.0496" y="2" relative="1" as="geometry">
            <mxPoint x="-1" as="offset" />
          </mxGeometry>
        </mxCell>
        <mxCell id="zKfwrWCPfjFIez0g7Iu5-47" value="" style="edgeStyle=orthogonalEdgeStyle;rounded=0;orthogonalLoop=1;jettySize=auto;html=1;" edge="1" parent="1" source="zKfwrWCPfjFIez0g7Iu5-20" target="zKfwrWCPfjFIez0g7Iu5-38">
          <mxGeometry relative="1" as="geometry" />
        </mxCell>
        <mxCell id="zKfwrWCPfjFIez0g7Iu5-48" value="N" style="edgeLabel;html=1;align=center;verticalAlign=middle;resizable=0;points=[];" vertex="1" connectable="0" parent="zKfwrWCPfjFIez0g7Iu5-47">
          <mxGeometry x="-0.0748" relative="1" as="geometry">
            <mxPoint as="offset" />
          </mxGeometry>
        </mxCell>
        <mxCell id="zKfwrWCPfjFIez0g7Iu5-20" value="IS COMPUTER&#39;S CARD TOTAL LESS THAN 17" style="rhombus;whiteSpace=wrap;html=1;" vertex="1" parent="1">
          <mxGeometry x="480" y="410" width="100" height="100" as="geometry" />
        </mxCell>
        <mxCell id="zKfwrWCPfjFIez0g7Iu5-26" style="edgeStyle=orthogonalEdgeStyle;rounded=0;orthogonalLoop=1;jettySize=auto;html=1;entryX=0.5;entryY=0;entryDx=0;entryDy=0;" edge="1" parent="1" source="zKfwrWCPfjFIez0g7Iu5-23" target="zKfwrWCPfjFIez0g7Iu5-20">
          <mxGeometry relative="1" as="geometry">
            <Array as="points">
              <mxPoint x="690" y="390" />
              <mxPoint x="530" y="390" />
            </Array>
          </mxGeometry>
        </mxCell>
        <mxCell id="zKfwrWCPfjFIez0g7Iu5-23" value="ADD ANOTHER CARD TO THE COMPUTER&#39;S CARD COLLECTION" style="rounded=1;whiteSpace=wrap;html=1;" vertex="1" parent="1">
          <mxGeometry x="630" y="430" width="120" height="60" as="geometry" />
        </mxCell>
        <mxCell id="zKfwrWCPfjFIez0g7Iu5-45" style="edgeStyle=orthogonalEdgeStyle;rounded=0;orthogonalLoop=1;jettySize=auto;html=1;entryX=1;entryY=0.5;entryDx=0;entryDy=0;" edge="1" parent="1" source="zKfwrWCPfjFIez0g7Iu5-27" target="zKfwrWCPfjFIez0g7Iu5-2">
          <mxGeometry relative="1" as="geometry" />
        </mxCell>
        <mxCell id="zKfwrWCPfjFIez0g7Iu5-27" value="PLAYER WINS" style="rounded=1;whiteSpace=wrap;html=1;fillColor=#66FF66;" vertex="1" parent="1">
          <mxGeometry x="325" y="565" width="120" height="30" as="geometry" />
        </mxCell>
        <mxCell id="zKfwrWCPfjFIez0g7Iu5-29" style="edgeStyle=orthogonalEdgeStyle;rounded=0;orthogonalLoop=1;jettySize=auto;html=1;entryX=0;entryY=0.5;entryDx=0;entryDy=0;" edge="1" parent="1" source="zKfwrWCPfjFIez0g7Iu5-28" target="zKfwrWCPfjFIez0g7Iu5-9">
          <mxGeometry relative="1" as="geometry">
            <Array as="points">
              <mxPoint x="50" y="685" />
              <mxPoint x="50" y="340" />
            </Array>
          </mxGeometry>
        </mxCell>
        <mxCell id="zKfwrWCPfjFIez0g7Iu5-31" value="N" style="edgeLabel;html=1;align=center;verticalAlign=middle;resizable=0;points=[];" vertex="1" connectable="0" parent="zKfwrWCPfjFIez0g7Iu5-29">
          <mxGeometry x="-0.921" relative="1" as="geometry">
            <mxPoint as="offset" />
          </mxGeometry>
        </mxCell>
        <mxCell id="zKfwrWCPfjFIez0g7Iu5-33" value="" style="edgeStyle=orthogonalEdgeStyle;rounded=0;orthogonalLoop=1;jettySize=auto;html=1;" edge="1" parent="1" source="zKfwrWCPfjFIez0g7Iu5-28" target="zKfwrWCPfjFIez0g7Iu5-32">
          <mxGeometry relative="1" as="geometry" />
        </mxCell>
        <mxCell id="zKfwrWCPfjFIez0g7Iu5-34" value="Y" style="edgeLabel;html=1;align=center;verticalAlign=middle;resizable=0;points=[];" vertex="1" connectable="0" parent="zKfwrWCPfjFIez0g7Iu5-33">
          <mxGeometry x="-0.3585" y="1" relative="1" as="geometry">
            <mxPoint as="offset" />
          </mxGeometry>
        </mxCell>
        <mxCell id="zKfwrWCPfjFIez0g7Iu5-28" value="IS PLAYER CARD TOTAL MORE THAN 21" style="rhombus;whiteSpace=wrap;html=1;" vertex="1" parent="1">
          <mxGeometry x="175" y="640" width="110" height="90" as="geometry" />
        </mxCell>
        <mxCell id="zKfwrWCPfjFIez0g7Iu5-36" style="edgeStyle=orthogonalEdgeStyle;rounded=0;orthogonalLoop=1;jettySize=auto;html=1;entryX=0.5;entryY=0;entryDx=0;entryDy=0;" edge="1" parent="1" source="zKfwrWCPfjFIez0g7Iu5-32" target="zKfwrWCPfjFIez0g7Iu5-2">
          <mxGeometry relative="1" as="geometry" />
        </mxCell>
        <mxCell id="zKfwrWCPfjFIez0g7Iu5-32" value="PLAYER LOSES" style="rounded=1;whiteSpace=wrap;html=1;fillColor=#FF6666;" vertex="1" parent="1">
          <mxGeometry x="180" y="770" width="100" height="30" as="geometry" />
        </mxCell>
        <mxCell id="zKfwrWCPfjFIez0g7Iu5-41" value="" style="edgeStyle=orthogonalEdgeStyle;rounded=0;orthogonalLoop=1;jettySize=auto;html=1;" edge="1" parent="1" source="zKfwrWCPfjFIez0g7Iu5-37" target="zKfwrWCPfjFIez0g7Iu5-20">
          <mxGeometry relative="1" as="geometry" />
        </mxCell>
        <mxCell id="zKfwrWCPfjFIez0g7Iu5-46" value="N" style="edgeLabel;html=1;align=center;verticalAlign=middle;resizable=0;points=[];" vertex="1" connectable="0" parent="zKfwrWCPfjFIez0g7Iu5-41">
          <mxGeometry x="-0.1403" y="1" relative="1" as="geometry">
            <mxPoint as="offset" />
          </mxGeometry>
        </mxCell>
        <mxCell id="zKfwrWCPfjFIez0g7Iu5-42" value="" style="edgeStyle=orthogonalEdgeStyle;rounded=0;orthogonalLoop=1;jettySize=auto;html=1;" edge="1" parent="1" source="zKfwrWCPfjFIez0g7Iu5-37" target="zKfwrWCPfjFIez0g7Iu5-27">
          <mxGeometry relative="1" as="geometry" />
        </mxCell>
        <mxCell id="zKfwrWCPfjFIez0g7Iu5-43" value="Y" style="edgeLabel;html=1;align=center;verticalAlign=middle;resizable=0;points=[];" vertex="1" connectable="0" parent="zKfwrWCPfjFIez0g7Iu5-42">
          <mxGeometry x="-0.2845" y="-1" relative="1" as="geometry">
            <mxPoint as="offset" />
          </mxGeometry>
        </mxCell>
        <mxCell id="zKfwrWCPfjFIez0g7Iu5-37" value="IS PLAYER CARD TOTAL EQUAL TO 21" style="rhombus;whiteSpace=wrap;html=1;" vertex="1" parent="1">
          <mxGeometry x="330" y="415" width="110" height="90" as="geometry" />
        </mxCell>
        <mxCell id="zKfwrWCPfjFIez0g7Iu5-52" value="" style="edgeStyle=orthogonalEdgeStyle;rounded=0;orthogonalLoop=1;jettySize=auto;html=1;" edge="1" parent="1" source="zKfwrWCPfjFIez0g7Iu5-38" target="zKfwrWCPfjFIez0g7Iu5-51">
          <mxGeometry relative="1" as="geometry" />
        </mxCell>
        <mxCell id="zKfwrWCPfjFIez0g7Iu5-55" value="Y" style="edgeLabel;html=1;align=center;verticalAlign=middle;resizable=0;points=[];" vertex="1" connectable="0" parent="zKfwrWCPfjFIez0g7Iu5-52">
          <mxGeometry x="-0.4339" relative="1" as="geometry">
            <mxPoint as="offset" />
          </mxGeometry>
        </mxCell>
        <mxCell id="zKfwrWCPfjFIez0g7Iu5-57" value="" style="edgeStyle=orthogonalEdgeStyle;rounded=0;orthogonalLoop=1;jettySize=auto;html=1;" edge="1" parent="1" source="zKfwrWCPfjFIez0g7Iu5-38" target="zKfwrWCPfjFIez0g7Iu5-54">
          <mxGeometry relative="1" as="geometry" />
        </mxCell>
        <mxCell id="zKfwrWCPfjFIez0g7Iu5-58" value="N" style="edgeLabel;html=1;align=center;verticalAlign=middle;resizable=0;points=[];" vertex="1" connectable="0" parent="zKfwrWCPfjFIez0g7Iu5-57">
          <mxGeometry x="-0.1627" relative="1" as="geometry">
            <mxPoint as="offset" />
          </mxGeometry>
        </mxCell>
        <mxCell id="zKfwrWCPfjFIez0g7Iu5-38" value="IS COMPUTER CARD EQUAL TO 21" style="rhombus;whiteSpace=wrap;html=1;" vertex="1" parent="1">
          <mxGeometry x="400" y="620" width="110" height="90" as="geometry" />
        </mxCell>
        <mxCell id="zKfwrWCPfjFIez0g7Iu5-85" style="edgeStyle=orthogonalEdgeStyle;rounded=0;orthogonalLoop=1;jettySize=auto;html=1;entryX=0;entryY=0.5;entryDx=0;entryDy=0;" edge="1" parent="1" source="zKfwrWCPfjFIez0g7Iu5-51" target="zKfwrWCPfjFIez0g7Iu5-84">
          <mxGeometry relative="1" as="geometry">
            <Array as="points">
              <mxPoint x="380" y="860" />
              <mxPoint x="410" y="860" />
              <mxPoint x="410" y="970" />
            </Array>
          </mxGeometry>
        </mxCell>
        <mxCell id="zKfwrWCPfjFIez0g7Iu5-51" value="PLAYER LOSES" style="rounded=1;whiteSpace=wrap;html=1;fillColor=#FF6666;" vertex="1" parent="1">
          <mxGeometry x="325" y="760" width="100" height="30" as="geometry" />
        </mxCell>
        <mxCell id="zKfwrWCPfjFIez0g7Iu5-62" value="" style="edgeStyle=orthogonalEdgeStyle;rounded=0;orthogonalLoop=1;jettySize=auto;html=1;" edge="1" parent="1" source="zKfwrWCPfjFIez0g7Iu5-54" target="zKfwrWCPfjFIez0g7Iu5-61">
          <mxGeometry relative="1" as="geometry" />
        </mxCell>
        <mxCell id="zKfwrWCPfjFIez0g7Iu5-63" value="Y" style="edgeLabel;html=1;align=center;verticalAlign=middle;resizable=0;points=[];" vertex="1" connectable="0" parent="zKfwrWCPfjFIez0g7Iu5-62">
          <mxGeometry x="-0.1672" relative="1" as="geometry">
            <mxPoint as="offset" />
          </mxGeometry>
        </mxCell>
        <mxCell id="zKfwrWCPfjFIez0g7Iu5-66" value="" style="edgeStyle=orthogonalEdgeStyle;rounded=0;orthogonalLoop=1;jettySize=auto;html=1;" edge="1" parent="1" source="zKfwrWCPfjFIez0g7Iu5-54" target="zKfwrWCPfjFIez0g7Iu5-65">
          <mxGeometry relative="1" as="geometry" />
        </mxCell>
        <mxCell id="zKfwrWCPfjFIez0g7Iu5-67" value="N" style="edgeLabel;html=1;align=center;verticalAlign=middle;resizable=0;points=[];" vertex="1" connectable="0" parent="zKfwrWCPfjFIez0g7Iu5-66">
          <mxGeometry x="0.4614" y="-1" relative="1" as="geometry">
            <mxPoint as="offset" />
          </mxGeometry>
        </mxCell>
        <mxCell id="zKfwrWCPfjFIez0g7Iu5-54" value="IS COMPUTER CARD GREATER THAN 21" style="rhombus;whiteSpace=wrap;html=1;" vertex="1" parent="1">
          <mxGeometry x="550" y="620" width="110" height="90" as="geometry" />
        </mxCell>
        <mxCell id="zKfwrWCPfjFIez0g7Iu5-86" style="edgeStyle=orthogonalEdgeStyle;rounded=0;orthogonalLoop=1;jettySize=auto;html=1;entryX=0;entryY=0;entryDx=0;entryDy=0;" edge="1" parent="1" source="zKfwrWCPfjFIez0g7Iu5-61" target="zKfwrWCPfjFIez0g7Iu5-84">
          <mxGeometry relative="1" as="geometry" />
        </mxCell>
        <mxCell id="zKfwrWCPfjFIez0g7Iu5-61" value="PLAYER WINS" style="rounded=1;whiteSpace=wrap;html=1;fillColor=#66FF66;" vertex="1" parent="1">
          <mxGeometry x="440" y="760" width="120" height="30" as="geometry" />
        </mxCell>
        <mxCell id="zKfwrWCPfjFIez0g7Iu5-68" style="edgeStyle=orthogonalEdgeStyle;rounded=0;orthogonalLoop=1;jettySize=auto;html=1;entryX=0.5;entryY=0;entryDx=0;entryDy=0;" edge="1" parent="1" source="zKfwrWCPfjFIez0g7Iu5-65" target="zKfwrWCPfjFIez0g7Iu5-74">
          <mxGeometry relative="1" as="geometry">
            <mxPoint x="790" y="800" as="targetPoint" />
            <Array as="points">
              <mxPoint x="800" y="665" />
              <mxPoint x="800" y="735" />
            </Array>
          </mxGeometry>
        </mxCell>
        <mxCell id="zKfwrWCPfjFIez0g7Iu5-76" value="N" style="edgeLabel;html=1;align=center;verticalAlign=middle;resizable=0;points=[];" vertex="1" connectable="0" parent="zKfwrWCPfjFIez0g7Iu5-68">
          <mxGeometry x="-0.8445" y="2" relative="1" as="geometry">
            <mxPoint as="offset" />
          </mxGeometry>
        </mxCell>
        <mxCell id="zKfwrWCPfjFIez0g7Iu5-69" style="edgeStyle=orthogonalEdgeStyle;rounded=0;orthogonalLoop=1;jettySize=auto;html=1;entryX=0.5;entryY=0;entryDx=0;entryDy=0;exitX=0.5;exitY=1;exitDx=0;exitDy=0;" edge="1" parent="1" target="zKfwrWCPfjFIez0g7Iu5-70">
          <mxGeometry relative="1" as="geometry">
            <mxPoint x="610" y="785" as="targetPoint" />
            <mxPoint x="730" y="680" as="sourcePoint" />
            <Array as="points">
              <mxPoint x="730" y="772" />
              <mxPoint x="680" y="772" />
              <mxPoint x="680" y="785" />
              <mxPoint x="610" y="785" />
            </Array>
          </mxGeometry>
        </mxCell>
        <mxCell id="zKfwrWCPfjFIez0g7Iu5-75" value="Y" style="edgeLabel;html=1;align=center;verticalAlign=middle;resizable=0;points=[];" vertex="1" connectable="0" parent="zKfwrWCPfjFIez0g7Iu5-69">
          <mxGeometry x="-0.8354" y="-1" relative="1" as="geometry">
            <mxPoint as="offset" />
          </mxGeometry>
        </mxCell>
        <mxCell id="zKfwrWCPfjFIez0g7Iu5-91" value="Y" style="edgeLabel;html=1;align=center;verticalAlign=middle;resizable=0;points=[];" vertex="1" connectable="0" parent="zKfwrWCPfjFIez0g7Iu5-69">
          <mxGeometry x="-0.657" y="-3" relative="1" as="geometry">
            <mxPoint as="offset" />
          </mxGeometry>
        </mxCell>
        <mxCell id="zKfwrWCPfjFIez0g7Iu5-65" value="IS COMPUTERS CARD EQUAL TO PLAYERS CARD" style="rhombus;whiteSpace=wrap;html=1;" vertex="1" parent="1">
          <mxGeometry x="690" y="625" width="80" height="80" as="geometry" />
        </mxCell>
        <mxCell id="zKfwrWCPfjFIez0g7Iu5-87" style="edgeStyle=orthogonalEdgeStyle;rounded=0;orthogonalLoop=1;jettySize=auto;html=1;entryX=1;entryY=0;entryDx=0;entryDy=0;" edge="1" parent="1" source="zKfwrWCPfjFIez0g7Iu5-70" target="zKfwrWCPfjFIez0g7Iu5-84">
          <mxGeometry relative="1" as="geometry">
            <Array as="points">
              <mxPoint x="510" y="825" />
              <mxPoint x="510" y="950" />
            </Array>
          </mxGeometry>
        </mxCell>
        <mxCell id="zKfwrWCPfjFIez0g7Iu5-70" value="DRAW" style="rounded=1;whiteSpace=wrap;html=1;fillColor=#FFD966;" vertex="1" parent="1">
          <mxGeometry x="550" y="810" width="120" height="30" as="geometry" />
        </mxCell>
        <mxCell id="zKfwrWCPfjFIez0g7Iu5-71" value="PLAYER WINS" style="rounded=1;whiteSpace=wrap;html=1;fillColor=#66FF66;" vertex="1" parent="1">
          <mxGeometry x="580" y="920" width="100" height="30" as="geometry" />
        </mxCell>
        <mxCell id="zKfwrWCPfjFIez0g7Iu5-81" style="edgeStyle=orthogonalEdgeStyle;rounded=0;orthogonalLoop=1;jettySize=auto;html=1;" edge="1" parent="1" source="zKfwrWCPfjFIez0g7Iu5-74" target="zKfwrWCPfjFIez0g7Iu5-71">
          <mxGeometry relative="1" as="geometry" />
        </mxCell>
        <mxCell id="zKfwrWCPfjFIez0g7Iu5-83" value="N" style="edgeLabel;html=1;align=center;verticalAlign=middle;resizable=0;points=[];" vertex="1" connectable="0" parent="zKfwrWCPfjFIez0g7Iu5-81">
          <mxGeometry x="-0.5288" y="-1" relative="1" as="geometry">
            <mxPoint as="offset" />
          </mxGeometry>
        </mxCell>
        <mxCell id="zKfwrWCPfjFIez0g7Iu5-74" value="IS COMPUTERS CARD GREATER THAN PLAYERS CARD" style="rhombus;whiteSpace=wrap;html=1;" vertex="1" parent="1">
          <mxGeometry x="710" y="820" width="80" height="80" as="geometry" />
        </mxCell>
        <mxCell id="zKfwrWCPfjFIez0g7Iu5-89" style="edgeStyle=orthogonalEdgeStyle;rounded=0;orthogonalLoop=1;jettySize=auto;html=1;" edge="1" parent="1" source="zKfwrWCPfjFIez0g7Iu5-79" target="zKfwrWCPfjFIez0g7Iu5-84">
          <mxGeometry relative="1" as="geometry">
            <Array as="points">
              <mxPoint x="790" y="1000" />
              <mxPoint x="625" y="1000" />
              <mxPoint x="625" y="990" />
            </Array>
          </mxGeometry>
        </mxCell>
        <mxCell id="zKfwrWCPfjFIez0g7Iu5-79" value="PLAYER LOSES" style="rounded=1;whiteSpace=wrap;html=1;fillColor=#FF6666;" vertex="1" parent="1">
          <mxGeometry x="740" y="930" width="100" height="30" as="geometry" />
        </mxCell>
        <mxCell id="zKfwrWCPfjFIez0g7Iu5-80" style="edgeStyle=orthogonalEdgeStyle;rounded=0;orthogonalLoop=1;jettySize=auto;html=1;exitX=1;exitY=0.5;exitDx=0;exitDy=0;entryX=0.635;entryY=0.095;entryDx=0;entryDy=0;entryPerimeter=0;" edge="1" parent="1" source="zKfwrWCPfjFIez0g7Iu5-74" target="zKfwrWCPfjFIez0g7Iu5-79">
          <mxGeometry relative="1" as="geometry" />
        </mxCell>
        <mxCell id="zKfwrWCPfjFIez0g7Iu5-82" value="Y" style="edgeLabel;html=1;align=center;verticalAlign=middle;resizable=0;points=[];" vertex="1" connectable="0" parent="zKfwrWCPfjFIez0g7Iu5-80">
          <mxGeometry x="-0.0865" y="1" relative="1" as="geometry">
            <mxPoint as="offset" />
          </mxGeometry>
        </mxCell>
        <mxCell id="zKfwrWCPfjFIez0g7Iu5-90" style="edgeStyle=orthogonalEdgeStyle;rounded=0;orthogonalLoop=1;jettySize=auto;html=1;entryX=0.5;entryY=1;entryDx=0;entryDy=0;" edge="1" parent="1" source="zKfwrWCPfjFIez0g7Iu5-84" target="zKfwrWCPfjFIez0g7Iu5-2">
          <mxGeometry relative="1" as="geometry" />
        </mxCell>
        <mxCell id="zKfwrWCPfjFIez0g7Iu5-84" value="" style="rhombus;whiteSpace=wrap;html=1;" vertex="1" parent="1">
          <mxGeometry x="425" y="950" width="80" height="80" as="geometry" />
        </mxCell>
        <mxCell id="zKfwrWCPfjFIez0g7Iu5-88" style="edgeStyle=orthogonalEdgeStyle;rounded=0;orthogonalLoop=1;jettySize=auto;html=1;entryX=0.892;entryY=0.477;entryDx=0;entryDy=0;entryPerimeter=0;" edge="1" parent="1" source="zKfwrWCPfjFIez0g7Iu5-71" target="zKfwrWCPfjFIez0g7Iu5-84">
          <mxGeometry relative="1" as="geometry" />
        </mxCell>
      </root>
    </mxGraphModel>
  </diagram>
</mxfile>
